<?xml version="1.0" standalone="no"?>
<!DOCTYPE svg PUBLIC "-//W3C//DTD SVG 20010904//EN"
 "http://www.w3.org/TR/2001/REC-SVG-20010904/DTD/svg10.dtd">
<svg version="1.0" xmlns="http://www.w3.org/2000/svg"
 width="500.000000pt" height="500.000000pt" viewBox="0 0 500.000000 500.000000"
 preserveAspectRatio="xMidYMid meet">
<metadata>
Created by potrace 1.14, written by Peter Selinger 2001-2017
</metadata>
<g transform="translate(0.000000,500.000000) scale(0.100000,-0.100000)"
fill="#000000" stroke="none">
<path d="M2497 4289 c-4 -51 -7 -123 -7 -160 0 -80 3 -82 110 -77 87 4 95 27
8 25 l-63 -2 0 150 c-1 144 -2 150 -21 153 -19 3 -21 -3 -27 -89z"/>
<path d="M2111 4339 c-24 -5 -46 -11 -49 -13 -2 -3 7 -72 22 -154 14 -82 26
-152 26 -154 0 -3 34 1 76 8 131 23 181 74 172 173 -6 64 -30 99 -88 129 -46
23 -85 26 -159 11z m139 -35 c41 -35 60 -74 60 -126 0 -76 -40 -122 -116 -134
l-41 -6 -22 133 c-21 126 -21 134 -5 146 30 22 89 16 124 -13z"/>
<path d="M2825 4337 c-6 -16 -55 -281 -55 -294 0 -6 9 -13 20 -16 11 -3 20 -3
20 -1 0 5 48 260 55 290 3 16 -1 23 -16 27 -11 3 -22 0 -24 -6z"/>
<path d="M2991 4143 c-39 -111 -48 -149 -39 -155 25 -15 35 -8 47 35 7 23 19
57 27 75 l13 32 40 -16 c22 -9 46 -14 53 -11 9 3 6 7 -7 12 -11 5 -34 14 -52
21 l-31 12 20 56 c12 31 26 56 33 56 6 0 34 -11 61 -25 56 -29 64 -30 64 -12
0 12 -137 67 -166 67 -6 0 -34 -66 -63 -147z"/>
<path d="M1750 4220 c-12 -7 -5 -33 44 -154 32 -80 60 -146 62 -146 6 0 159
61 163 65 1 2 0 9 -4 15 -5 7 -21 3 -50 -15 -72 -42 -74 -41 -131 107 -28 73
-55 133 -60 135 -5 1 -16 -1 -24 -7z"/>
<path d="M3275 4035 c-42 -74 -74 -139 -71 -144 7 -10 148 -91 160 -91 3 0 6
6 6 14 0 7 -27 25 -60 40 -33 15 -60 31 -60 36 0 4 14 33 32 63 l32 56 43 -26
c24 -14 47 -23 50 -19 8 7 8 7 -44 37 l-42 25 33 52 c31 51 32 51 60 37 15 -8
42 -26 58 -40 21 -18 34 -23 41 -16 6 6 9 13 6 15 -6 6 -159 96 -163 96 -2 0
-38 -61 -81 -135z"/>
<path d="M1551 4121 c-11 -7 3 -38 65 -145 74 -128 98 -154 110 -123 5 14
-142 277 -155 277 -3 0 -12 -4 -20 -9z"/>
<path d="M1390 4021 c0 -5 23 -62 50 -127 28 -64 49 -118 48 -119 -3 -3 -106
56 -204 116 -31 18 -31 18 -49 -1 -17 -19 -16 -20 28 -41 41 -20 49 -30 78
-96 17 -40 30 -75 28 -77 -2 -2 -55 26 -117 62 -105 60 -114 64 -129 49 -9 -9
-15 -18 -12 -21 13 -14 292 -157 296 -152 3 3 -10 45 -30 93 -19 48 -34 90
-32 91 2 2 43 -17 91 -42 49 -25 90 -44 91 -42 6 6 -120 316 -129 316 -4 0 -8
-4 -8 -9z"/>
<path d="M3698 3722 c-108 -106 -112 -112 -95 -129 17 -17 22 -13 129 95 105
104 111 113 96 128 -16 16 -24 9 -130 -94z"/>
<path d="M3835 3574 c-108 -76 -140 -104 -120 -104 4 0 52 31 108 70 56 38
103 68 105 66 2 -2 -17 -71 -42 -153 -25 -82 -46 -154 -46 -161 0 -7 51 22
113 65 148 101 159 110 149 117 -5 3 -47 -20 -93 -52 -46 -32 -89 -61 -95 -65
-7 -4 8 57 32 134 41 135 45 170 20 168 -6 0 -65 -38 -131 -85z"/>
<path d="M1925 3551 c-84 -48 -135 -110 -178 -214 -20 -50 -40 -110 -42 -132
-5 -39 -5 -39 6 -10 7 17 31 66 54 110 24 44 46 97 49 117 5 27 19 48 53 77
25 23 52 42 59 43 8 0 20 1 27 2 6 1 17 7 22 13 8 10 37 9 139 -7 167 -26 187
-24 56 5 -142 32 -183 32 -245 -4z"/>
<path d="M2559 3545 c-3 -2 -30 -11 -60 -19 -31 -9 -43 -15 -29 -15 14 0 45 6
70 15 28 10 59 13 83 10 25 -4 36 -3 32 4 -6 10 -87 14 -96 5z"/>
<path d="M2960 3530 c-11 -7 -3 -10 30 -10 25 0 70 -6 100 -14 30 -8 57 -13
59 -10 2 2 -16 13 -40 24 -47 21 -124 26 -149 10z"/>
<path d="M2775 3516 l-70 -12 82 -5 c68 -3 86 -1 104 14 21 17 21 17 -12 16
-19 -1 -65 -7 -104 -13z"/>
<path d="M2327 3510 c7 -8 31 -13 59 -11 62 2 71 11 11 11 -25 0 -54 3 -64 6
-14 6 -16 4 -6 -6z"/>
<path d="M2232 3462 c-43 -40 -74 -150 -78 -277 -2 -97 -2 -99 14 -70 11 22
16 59 17 135 2 115 16 163 63 213 34 35 23 35 -16 -1z"/>
<path d="M882 3459 c2 -7 48 -36 102 -65 l98 -52 -48 -10 c-27 -6 -89 -18
-139 -28 -49 -9 -97 -23 -105 -31 -13 -13 -13 -16 5 -29 27 -21 252 -134 265
-134 27 0 -10 25 -113 77 l-112 56 164 34 c156 31 180 38 170 47 -18 16 -290
144 -287 135z"/>
<path d="M2811 3400 c18 -22 34 -38 37 -36 6 7 -39 64 -55 70 -7 3 1 -12 18
-34z"/>
<path d="M2973 3421 c-17 -11 -44 -41 -59 -68 -15 -26 -38 -63 -51 -80 -30
-41 -26 -41 23 -2 22 17 49 35 61 40 15 5 21 14 17 24 -4 8 1 26 10 40 14 22
24 25 71 25 69 0 99 -25 125 -100 18 -52 25 -48 20 10 -3 42 -38 87 -84 109
-53 26 -92 26 -133 2z"/>
<path d="M3265 3359 c8 -23 15 -63 15 -90 0 -26 5 -51 10 -54 6 -3 10 3 10 14
0 11 5 23 10 26 18 11 10 51 -20 98 -16 26 -32 47 -34 47 -3 0 1 -19 9 -41z"/>
<path d="M2105 3353 c15 -24 30 -43 32 -43 7 0 -31 61 -46 73 -8 7 -2 -7 14
-30z"/>
<path d="M2766 3370 c6 -8 16 -24 22 -35 6 -11 12 -15 12 -8 0 7 -10 22 -22
35 -13 13 -18 17 -12 8z"/>
<path d="M2500 3330 c-20 -6 -14 -8 28 -9 57 -1 108 -22 163 -68 l34 -28 -22
38 c-22 36 -22 37 -3 37 11 0 20 5 20 11 0 8 -14 9 -43 5 -28 -4 -58 -1 -86 9
-48 16 -54 17 -91 5z"/>
<path d="M4114 3265 c-25 -17 -40 -53 -49 -118 -15 -114 -120 -117 -132 -4 -3
26 -10 47 -14 47 -12 0 -11 -41 2 -81 40 -119 166 -120 184 0 12 73 26 111 49
126 43 28 66 2 66 -77 0 -38 16 -51 26 -23 11 28 -7 88 -36 117 -31 31 -65 36
-96 13z"/>
<path d="M2057 3200 c-32 -37 -86 -174 -74 -186 9 -9 55 81 62 121 4 22 18 55
32 73 34 45 21 40 -20 -8z"/>
<path d="M1697 3115 c3 -27 9 -57 14 -65 9 -17 0 51 -12 90 -5 15 -6 6 -2 -25z"/>
<path d="M2834 3144 c3 -9 7 -37 7 -62 1 -42 2 -44 9 -17 14 55 11 95 -6 95
-11 0 -14 -5 -10 -16z"/>
<path d="M3291 3133 c-4 -104 -35 -163 -87 -163 -12 0 -27 -7 -34 -15 -11 -13
-5 -15 43 -15 37 0 59 5 67 16 14 16 26 154 17 189 -3 13 -5 9 -6 -12z"/>
<path d="M732 3040 c-63 -38 -84 -155 -39 -221 66 -100 233 -104 282 -8 22 42
21 122 -3 167 -38 74 -166 107 -240 62z m164 -49 c59 -27 87 -66 81 -115 -8
-56 -35 -78 -100 -84 -137 -11 -238 109 -158 189 25 25 37 29 83 29 30 0 71
-9 94 -19z"/>
<path d="M2170 3056 c0 -2 9 -6 20 -9 11 -3 18 -1 14 4 -5 9 -34 13 -34 5z"/>
<path d="M2343 3046 c-42 -19 -43 -28 -2 -14 29 10 135 6 189 -7 16 -4 12 0
-10 10 -50 24 -138 29 -177 11z"/>
<path d="M2719 3033 c-13 -15 -12 -15 9 -4 13 7 30 10 38 7 9 -3 12 -1 9 4
-10 16 -41 12 -56 -7z"/>
<path d="M2180 3014 c0 -7 10 -18 21 -25 18 -9 19 -13 8 -21 -12 -8 -11 -9 1
-5 26 7 23 41 -5 54 -20 9 -25 8 -25 -3z"/>
<path d="M2716 2989 c-31 -25 -33 -35 -6 -49 14 -7 26 -8 38 -1 14 9 12 11
-13 11 l-30 1 28 15 c15 8 27 19 27 24 0 19 -19 19 -44 -1z"/>
<path d="M1768 2980 c10 -11 26 -44 35 -74 10 -32 29 -64 45 -78 15 -13 64
-64 110 -114 97 -106 138 -134 175 -117 22 10 26 9 31 -10 3 -12 21 -44 41
-71 l35 -50 0 36 c0 30 -3 35 -18 32 -25 -7 -52 45 -52 100 0 26 14 85 35 142
19 53 35 101 35 108 0 6 -15 18 -33 26 -21 10 -36 26 -42 47 -14 42 -27 55
-15 15 11 -40 19 -53 47 -75 29 -23 29 -43 -3 -120 -14 -34 -28 -84 -31 -110
-4 -35 -10 -47 -20 -43 -8 3 -22 1 -32 -5 -29 -19 -77 15 -121 84 -22 34 -56
73 -77 87 -28 19 -49 48 -80 110 -23 46 -48 87 -55 92 -24 14 -29 8 -10 -12z"/>
<path d="M2755 2893 c-43 -65 -51 -106 -37 -208 l9 -70 2 60 c1 39 7 69 18 85
16 24 16 24 0 11 -15 -12 -17 -10 -17 28 0 30 8 55 28 84 36 53 44 67 39 67
-2 0 -21 -26 -42 -57z"/>
<path d="M4150 2911 c-123 -30 -145 -39 -142 -53 5 -23 4 -24 169 14 132 30
143 35 143 56 0 27 6 28 -170 -17z"/>
<path d="M2357 2926 c-21 -8 -42 -18 -45 -22 -4 -4 0 -5 9 -1 56 20 141 29
180 19 31 -8 39 -8 30 1 -17 17 -131 19 -174 3z"/>
<path d="M2967 2874 c-10 -19 -39 -58 -65 -86 -26 -28 -38 -46 -27 -40 36 18
77 66 97 110 24 53 19 67 -5 16z"/>
<path d="M3125 2860 c7 -48 -5 -61 -77 -90 -51 -20 -66 -32 -80 -60 -25 -51
-68 -85 -137 -111 -66 -24 -77 -39 -14 -19 60 19 176 96 194 128 9 16 42 44
73 61 59 34 68 56 45 106 -7 15 -8 12 -4 -15z"/>
<path d="M2778 2845 c-3 -11 -9 -29 -13 -40 -3 -11 1 -7 10 8 9 16 15 33 12
40 -2 6 -6 3 -9 -8z"/>
<path d="M2397 2779 c34 -4 83 -17 109 -28 53 -24 69 -21 30 4 -34 22 -90 35
-151 33 l-50 -1 62 -8z"/>
<path d="M4114 2721 c-17 -10 -39 -36 -49 -57 -20 -41 -26 -128 -12 -177 7
-27 9 -28 70 -25 56 3 62 5 65 26 3 21 0 22 -62 22 l-66 0 0 43 c0 54 17 86
59 114 66 45 189 24 222 -38 7 -15 9 -45 6 -86 -5 -48 -3 -63 6 -60 6 2 15 21
19 42 16 76 -28 168 -99 204 -35 18 -124 13 -159 -8z"/>
<path d="M2225 2657 c-4 -30 -5 -63 -3 -73 3 -11 8 12 13 49 4 37 5 70 2 73
-3 3 -8 -19 -12 -49z"/>
<path d="M1940 2688 c0 -9 14 -56 31 -105 17 -48 50 -146 73 -218 37 -114 84
-225 86 -202 0 4 -16 48 -35 97 -38 97 -46 152 -20 130 8 -7 -1 14 -20 46 -20
33 -42 79 -50 104 -21 68 -64 167 -65 148z"/>
<path d="M2612 2640 c0 -19 2 -27 5 -17 2 9 2 25 0 35 -3 9 -5 1 -5 -18z"/>
<path d="M924 2591 c11 -84 14 -83 -153 -80 -141 3 -146 2 -149 -18 -3 -19 3
-21 153 -28 86 -4 158 -5 160 -3 2 1 6 42 10 91 7 79 6 87 -10 87 -15 0 -17
-7 -11 -49z"/>
<path d="M2981 2560 c-14 -45 -29 -74 -40 -77 -9 -2 -24 -28 -35 -61 -31 -95
-31 -96 -13 -89 9 3 18 1 20 -6 2 -7 7 4 12 23 4 19 16 52 26 72 22 44 62 184
57 200 -2 6 -14 -21 -27 -62z"/>
<path d="M2282 2564 l-37 -35 59 30 c48 25 71 31 124 31 54 0 70 -4 91 -22 21
-19 23 -20 11 -3 -24 33 -31 35 -123 35 -86 0 -88 0 -125 -36z"/>
<path d="M2656 2530 c-20 -23 -40 -39 -44 -36 -4 2 -13 -12 -19 -32 l-11 -37
36 45 c21 25 50 57 66 73 15 15 24 27 18 27 -5 0 -26 -18 -46 -40z"/>
<path d="M2713 2480 c0 -25 2 -35 4 -22 2 12 2 32 0 45 -2 12 -4 2 -4 -23z"/>
<path d="M2636 2430 c-3 -23 -4 -45 -1 -51 16 -25 76 8 74 42 0 8 -5 5 -11 -8
-22 -46 -63 -40 -45 7 8 21 8 33 1 40 -8 8 -13 -1 -18 -30z"/>
<path d="M2387 2421 c40 -11 84 -28 99 -38 20 -13 26 -14 22 -3 -10 32 -55 52
-124 56 l-69 5 72 -20z"/>
<path d="M2130 2393 c0 -7 9 -13 20 -13 11 0 20 6 20 13 0 7 -9 13 -20 13 -11
0 -20 -6 -20 -13z"/>
<path d="M2663 2270 c-28 -66 -49 -120 -47 -120 12 0 110 227 101 236 -1 2
-26 -51 -54 -116z"/>
<path d="M2101 2350 c14 -31 19 -36 19 -24 0 6 -7 19 -16 30 -14 18 -14 18 -3
-6z"/>
<path d="M4040 2321 c0 -15 11 -22 50 -30 28 -6 59 -11 70 -11 29 0 33 -16 20
-87 l-13 -65 -41 6 c-22 4 -57 9 -77 12 -28 5 -37 2 -43 -11 -3 -10 -4 -20 -2
-23 3 -2 63 -15 133 -28 70 -13 140 -25 154 -28 22 -4 28 -1 31 19 5 22 1 24
-64 35 -76 13 -75 11 -57 103 13 62 4 59 111 37 20 -4 39 -5 43 -2 5 6 7 42 2
42 -2 0 -64 11 -138 25 -164 30 -179 31 -179 6z"/>
<path d="M2272 2310 c0 -14 2 -19 5 -12 2 6 2 18 0 25 -3 6 -5 1 -5 -13z"/>
<path d="M2525 2278 c-9 -29 -19 -84 -21 -123 l-4 -70 14 80 c7 44 18 98 24
119 17 60 6 55 -13 -6z"/>
<path d="M630 2301 c0 -5 41 -19 90 -31 50 -12 92 -26 95 -30 2 -4 -32 -33
-75 -64 -44 -31 -80 -60 -79 -64 4 -42 15 -39 100 28 73 58 96 70 148 81 61
12 66 15 56 41 -5 12 -17 13 -65 5 -52 -9 -72 -6 -153 17 -101 28 -117 31
-117 17z"/>
<path d="M2283 2245 c0 -22 2 -30 4 -17 2 12 2 30 0 40 -3 9 -5 -1 -4 -23z"/>
<path d="M2141 2190 c-2 -79 42 -384 47 -327 2 21 -2 62 -8 90 -7 29 -18 108
-25 177 -11 105 -13 114 -14 60z"/>
<path d="M2385 2199 c-36 -12 -45 -19 -33 -24 14 -6 98 28 98 40 0 7 -8 5 -65
-16z"/>
<path d="M2901 2194 c0 -11 3 -14 6 -6 3 7 2 16 -1 19 -3 4 -6 -2 -5 -13z"/>
<path d="M2292 2120 c-1 -63 1 -80 9 -67 7 11 7 40 1 85 l-9 67 -1 -85z"/>
<path d="M2881 2143 c-7 -18 -17 -33 -21 -33 -4 0 -10 -6 -13 -14 -3 -8 1 -13
11 -12 29 2 16 -51 -37 -157 -28 -53 -45 -95 -39 -91 6 4 8 -1 5 -12 -3 -11
-8 -37 -11 -59 -4 -26 1 -16 13 26 10 37 32 95 49 130 34 70 65 187 60 228 -3
26 -3 26 -17 -6z"/>
<path d="M2522 2035 c-1 -33 -4 -85 -7 -115 l-4 -55 10 49 c5 26 8 78 6 115
l-3 66 -2 -60z"/>
<path d="M2405 2070 c-27 -7 -25 -8 18 -9 30 -1 46 3 42 9 -7 11 -16 11 -60 0z"/>
<path d="M990 2031 c0 -7 14 -39 30 -71 l30 -60 -22 -9 c-13 -5 -40 -16 -62
-25 -21 -9 -42 -16 -45 -16 -4 0 -15 22 -25 50 -10 27 -22 48 -27 45 -4 -3 0
-28 11 -55 l19 -49 -56 -21 c-63 -24 -65 -22 -84 45 -6 22 -13 46 -15 53 -2 6
-10 12 -18 12 -12 0 -11 -11 9 -62 42 -111 44 -118 50 -118 9 0 280 103 288
110 10 8 -55 172 -71 178 -6 2 -12 -1 -12 -7z"/>
<path d="M2481 1927 c-7 -66 -9 -141 -4 -203 8 -97 8 -94 14 101 3 110 5 201
4 203 -1 1 -7 -44 -14 -101z"/>
<path d="M2395 1990 c11 -5 34 -9 50 -9 23 -1 26 2 15 9 -8 5 -31 9 -50 9 -29
0 -31 -2 -15 -9z"/>
<path d="M2303 1955 c0 -22 2 -30 4 -17 2 12 2 30 0 40 -3 9 -5 -1 -4 -23z"/>
<path d="M3934 1916 c-3 -8 -3 -19 0 -24 2 -4 64 -32 135 -61 72 -30 131 -59
131 -66 0 -7 -9 -24 -20 -38 -23 -29 -26 -47 -7 -47 12 0 97 190 97 218 0 6
-7 12 -15 12 -10 0 -15 -10 -15 -28 0 -16 -6 -36 -12 -45 -12 -15 -24 -12
-132 33 -154 64 -155 64 -162 46z"/>
<path d="M2365 1910 c-16 -7 -13 -9 18 -9 21 -1 47 -6 57 -11 16 -8 18 -8 14
5 -4 8 -11 15 -18 15 -6 0 -20 2 -31 5 -11 2 -29 0 -40 -5z"/>
<path d="M2313 1860 c0 -25 2 -35 4 -22 2 12 2 32 0 45 -2 12 -4 2 -4 -23z"/>
<path d="M2191 1804 c0 -11 3 -14 6 -6 3 7 2 16 -1 19 -3 4 -6 -2 -5 -13z"/>
<path d="M1095 1761 c-3 -5 4 -12 15 -16 46 -15 87 -108 70 -161 -12 -37 -64
-89 -103 -103 -70 -27 -144 1 -166 60 -7 19 -16 42 -19 51 -5 11 -12 15 -19
10 -10 -6 -7 -20 12 -59 50 -100 155 -139 245 -91 102 55 111 177 20 281 -33
38 -45 44 -55 28z"/>
<path d="M2705 1724 c-10 -26 -19 -68 -21 -93 l-3 -46 9 42 c5 23 16 63 25 89
21 61 13 68 -10 8z"/>
<path d="M2323 1595 c0 -120 2 -154 7 -115 11 74 11 196 1 245 -6 27 -9 -15
-8 -130z"/>
<path d="M3812 1676 c-48 -52 -59 -93 -38 -134 26 -50 72 -55 154 -17 59 27
101 32 120 13 21 -21 13 -45 -27 -81 -31 -28 -37 -38 -27 -46 9 -8 19 -3 38
17 52 56 64 116 28 152 -27 27 -70 25 -130 -5 -64 -32 -105 -33 -125 -1 -22
32 -11 69 31 106 19 16 34 32 34 35 0 15 -22 0 -58 -39z"/>
<path d="M2202 1675 c0 -16 4 -43 8 -60 l8 -30 0 30 c0 17 -4 44 -8 60 l-8 30
0 -30z"/>
<path d="M2751 1646 c-6 -25 -10 -80 -10 -123 l2 -78 8 90 c4 49 10 105 14
122 9 48 -1 40 -14 -11z"/>
<path d="M2589 1631 c24 -23 51 -41 60 -41 9 0 3 8 -15 19 -18 11 -35 24 -38
30 -4 6 -17 16 -29 21 -12 6 -2 -7 22 -29z"/>
<path d="M2466 1579 c-4 -23 -5 -44 -2 -46 2 -2 7 14 11 37 4 23 5 43 2 46 -2
3 -7 -14 -11 -37z"/>
<path d="M2254 1585 c-17 -13 -16 -14 15 -5 41 11 51 20 25 20 -11 0 -29 -7
-40 -15z"/>
<path d="M2260 1536 c0 -10 28 -13 41 -5 10 6 7 9 -13 9 -16 0 -28 -2 -28 -4z"/>
<path d="M2452 1500 c0 -14 2 -19 5 -12 2 6 2 18 0 25 -3 6 -5 1 -5 -13z"/>
<path d="M2561 1489 c18 -11 86 -12 93 0 3 4 -20 9 -51 9 -37 0 -52 -3 -42 -9z"/>
<path d="M2482 1460 c0 -14 4 -38 8 -55 7 -27 8 -27 8 -5 0 14 -4 39 -8 55 -7
27 -8 27 -8 5z"/>
<path d="M2223 1416 c-17 -78 -16 -99 3 -56 8 19 14 53 12 75 -3 40 -3 40 -15
-19z"/>
<path d="M1201 1448 c-1 -14 23 -98 44 -153 4 -11 -7 -3 -25 18 -34 40 -78 67
-107 67 -15 -1 -14 -3 5 -13 12 -7 43 -44 69 -82 62 -94 81 -114 128 -135 22
-9 46 -24 53 -33 11 -13 10 -15 -10 -10 -13 3 0 -7 29 -21 57 -30 86 -56 61
-56 -14 0 -137 49 -180 71 -22 11 -68 12 -68 0 0 -4 21 -11 48 -14 26 -3 77
-20 114 -37 36 -17 82 -32 102 -33 71 -5 47 -17 -35 -18 -79 -1 -82 -1 -54
-14 17 -8 37 -14 45 -14 10 0 8 3 -5 9 -34 14 95 10 140 -5 l40 -13 -59 -1
c-90 -2 -61 -11 40 -13 63 -1 79 -4 56 -9 -57 -12 -44 -14 75 -12 64 1 118 5
121 8 3 3 -14 5 -37 5 -40 0 -49 6 -115 69 -39 38 -84 74 -99 80 -36 14 -80
14 -72 1 4 -6 15 -8 26 -5 10 3 33 -1 52 -10 37 -17 153 -132 122 -120 -11 4
-34 9 -52 10 -38 4 -114 36 -129 56 -6 8 -19 36 -29 63 -11 27 -40 72 -67 100
l-48 51 16 -45 c8 -24 24 -60 35 -79 24 -40 19 -48 -14 -26 -34 22 -47 63 -47
149 0 88 -13 138 -46 173 -20 23 -23 24 -15 6 6 -12 12 -61 13 -110 l2 -88 5
85 c8 110 21 83 30 -58 5 -83 4 -99 -6 -85 -7 9 -14 26 -14 37 -1 18 -2 18 -6
3 -4 -16 -6 -15 -22 5 -31 40 -64 110 -87 188 -13 41 -23 68 -23 58z m25 -158
c29 -44 36 -50 28 -22 -5 14 -4 14 4 2 6 -8 8 -18 5 -23 -3 -6 5 -19 18 -29
13 -11 17 -16 9 -12 -8 4 -4 -5 9 -19 27 -30 18 -36 -17 -12 -21 16 -55 61
-102 139 -23 38 -23 38 -1 27 12 -7 33 -30 47 -51z m249 -186 c28 -59 31 -71
13 -56 -7 6 -17 11 -23 11 -5 1 -10 7 -10 14 0 6 -8 27 -18 44 -10 18 -22 45
-28 60 l-10 28 26 -25 c14 -13 37 -47 50 -76z"/>
<path d="M2671 1430 c0 -19 6 -48 14 -65 16 -33 15 -25 -4 60 l-9 40 -1 -35z"/>
<path d="M3813 1399 c-7 -30 -30 -89 -52 -131 -21 -43 -34 -75 -28 -71 6 3 7
1 3 -5 -4 -7 -5 -12 -3 -12 3 0 20 24 38 53 35 56 88 117 101 117 10 0 -63
-111 -96 -148 -23 -26 -57 -48 -55 -35 1 4 -1 16 -6 26 -9 21 -1 194 10 222 8
17 7 18 -7 7 -13 -10 -16 -33 -14 -126 1 -80 -3 -117 -11 -125 -22 -20 -15
-32 15 -25 47 12 71 34 127 120 30 45 65 90 77 98 12 9 17 16 11 16 -27 0 -63
-21 -98 -57 -21 -21 -36 -31 -33 -23 28 83 39 122 36 136 -2 9 -9 -8 -15 -37z
m-32 -132 c-10 -9 -11 -8 -5 6 3 10 9 15 12 12 3 -3 0 -11 -7 -18z"/>
<path d="M2731 1424 c0 -11 3 -14 6 -6 3 7 2 16 -1 19 -3 4 -6 -2 -5 -13z"/>
<path d="M2595 1420 c-13 -5 -14 -9 -5 -9 8 0 24 4 35 9 13 5 14 9 5 9 -8 0
-24 -4 -35 -9z"/>
<path d="M2330 1408 c0 -6 7 -20 17 -30 14 -16 15 -18 0 -18 -9 0 -19 -5 -23
-12 -4 -6 -3 -9 2 -6 5 3 17 8 28 12 14 5 16 9 7 20 -9 11 -7 15 11 20 42 11
58 7 52 -11 -5 -15 -4 -16 5 -3 6 8 11 21 11 28 0 15 -42 16 -58 0 -9 -9 -15
-9 -24 0 -15 15 -28 15 -28 0z"/>
<path d="M3680 1364 c-6 -14 -9 -62 -8 -107 l2 -82 6 90 c3 50 10 98 14 108 5
9 5 17 2 17 -4 0 -11 -12 -16 -26z"/>
<path d="M2502 1350 c0 -14 2 -19 5 -12 2 6 2 18 0 25 -3 6 -5 1 -5 -13z"/>
<path d="M2235 1334 c-21 -22 -10 -32 12 -12 10 9 27 18 38 21 16 4 14 5 -7 6
-15 0 -34 -6 -43 -15z"/>
<path d="M2425 1340 c-4 -6 6 -10 22 -10 22 0 25 2 13 10 -19 12 -27 12 -35 0z"/>
<path d="M2305 1312 c-64 -8 -40 -17 48 -18 51 -1 83 2 72 6 -30 11 -86 16
-120 12z"/>
<path d="M2562 1283 c-10 -4 -10 -8 -1 -19 9 -11 6 -14 -17 -14 -26 -1 -27 -2
-10 -11 27 -16 129 -6 162 16 l29 19 -43 9 c-46 9 -67 2 -42 -13 11 -7 8 -10
-13 -10 -15 0 -30 7 -33 15 -6 16 -11 17 -32 8z"/>
<path d="M2285 1248 c28 -11 75 -22 105 -25 47 -5 59 -2 80 16 22 20 22 21 3
12 -31 -16 -112 -13 -169 4 -69 21 -78 18 -19 -7z"/>
<path d="M3605 1188 c-21 -24 -52 -75 -70 -114 -31 -68 -34 -71 -90 -92 -32
-12 -59 -21 -60 -20 -2 2 30 32 71 68 66 58 71 65 49 68 -13 2 -38 -4 -55 -13
-37 -19 -107 -81 -121 -106 -5 -10 14 5 43 33 44 43 100 78 123 78 7 0 -112
-112 -131 -123 -7 -4 -28 -10 -46 -13 -114 -19 -124 -21 -91 -23 17 0 47 -10
66 -21 34 -20 174 -45 218 -38 21 3 19 6 -22 31 -25 15 -50 27 -55 27 -5 -1 8
-10 29 -21 22 -11 36 -23 34 -26 -10 -9 -166 16 -195 31 -26 15 -24 15 48 17
57 1 69 3 50 10 -24 8 -23 9 5 5 17 -2 57 0 90 4 l60 7 -60 2 c-53 2 -57 4
-35 13 14 6 69 12 124 14 121 4 140 14 27 14 -45 0 -80 4 -77 8 3 5 19 9 35
10 29 1 155 51 148 59 -2 2 -29 -8 -60 -23 -73 -33 -108 -29 -52 6 21 14 53
30 70 37 19 7 23 12 12 12 -10 1 -16 5 -13 10 4 5 2 20 -3 33 l-10 23 0 -24
c-1 -21 -68 -98 -77 -88 -2 2 9 28 25 58 27 51 47 109 37 109 -2 0 -21 -19
-41 -42z m4 -50 c-25 -49 -69 -111 -75 -105 -8 7 35 96 63 134 34 44 41 28 12
-29z"/>
<path d="M1298 1113 c7 -3 16 -2 19 1 4 3 -2 6 -13 5 -11 0 -14 -3 -6 -6z"/>
<path d="M3718 1113 c6 -2 18 -2 25 0 6 3 1 5 -13 5 -14 0 -19 -2 -12 -5z"/>
<path d="M3760 1094 c-22 -9 -26 -12 -10 -9 14 2 40 5 58 5 17 0 32 5 32 10 0
14 -38 11 -80 -6z"/>
<path d="M1584 1029 c32 -30 64 -56 70 -58 6 -2 -15 20 -48 50 -32 30 -64 56
-70 58 -6 2 15 -20 48 -50z"/>
<path d="M3580 970 c-20 -6 -21 -8 -5 -8 11 0 29 3 40 8 25 11 -1 11 -35 0z"/>
<path d="M1448 963 c7 -3 16 -2 19 1 4 3 -2 6 -13 5 -11 0 -14 -3 -6 -6z"/>
<path d="M1530 895 l-34 -25 34 0 c59 1 179 19 201 31 32 17 16 21 -22 5 -19
-7 -68 -17 -109 -20 l-75 -7 30 21 c17 11 26 20 20 19 -5 0 -26 -11 -45 -24z"/>
<path d="M2002 828 c-20 -71 -15 -121 6 -59 12 34 13 35 60 22 24 -7 32 -7 29
2 -2 6 -18 15 -35 19 -31 8 -38 21 -26 51 5 14 11 14 50 2 48 -14 61 -1 17 16
-76 29 -77 28 -101 -53z"/>
<path d="M3044 852 c-5 -4 -16 -34 -23 -67 -7 -33 -15 -70 -18 -82 -7 -31 15
-29 23 1 8 34 76 47 105 20 53 -47 6 38 -70 128 -3 4 -11 4 -17 0z m43 -94
c-37 -24 -55 -3 -41 50 6 22 7 22 30 -10 18 -24 21 -34 11 -40z"/>
<path d="M2236 769 c-46 -69 -54 -99 -18 -66 35 32 100 17 115 -25 2 -7 7 -11
10 -8 10 10 -35 170 -48 170 -7 0 -33 -32 -59 -71z m64 32 c0 -5 3 -23 6 -40
7 -31 6 -32 -22 -25 -38 9 -37 7 -17 43 17 30 33 41 33 22z"/>
<path d="M2852 765 c3 -30 2 -55 -2 -55 -4 0 -26 23 -49 50 -52 62 -76 66 -67
13 3 -21 6 -57 6 -80 0 -30 4 -43 14 -43 11 0 13 13 9 61 l-6 61 53 -56 c29
-31 57 -56 61 -56 11 0 12 49 3 114 -9 66 -28 58 -22 -9z"/>
<path d="M2477 803 c-13 -13 -7 -109 9 -131 21 -31 87 -31 108 0 18 25 22 138
6 138 -5 0 -10 -23 -10 -51 0 -66 -13 -89 -50 -89 -39 0 -51 25 -43 89 5 47
-2 63 -20 44z"/>
</g>
</svg>
